<?xml version="1.0" encoding="UTF-8"?>
<svg version="1.1" xmlns="http://www.w3.org/2000/svg" width="100" height="100">
<path d="M0 0 C1.32 0.66 2.64 1.32 4 2 C4.02505615 3.02472412 4.0501123 4.04944824 4.07592773 5.10522461 C4.16984484 8.89409676 4.27010317 12.68277881 4.37231445 16.47143555 C4.41572297 18.11364303 4.45739358 19.75589739 4.49731445 21.39819336 C4.5548744 23.75388745 4.61860892 26.10934428 4.68359375 28.46484375 C4.70030624 29.20339096 4.71701874 29.94193817 4.73423767 30.7028656 C4.53548013 34.14300627 4.53548013 34.14300627 6 37 C8.18292774 37.23481693 10.37203174 37.41363323 12.5625 37.5625 C13.76003906 37.64628906 14.95757813 37.73007813 16.19140625 37.81640625 C17.58166016 37.90728516 17.58166016 37.90728516 19 38 C18.99214478 36.91730835 18.99214478 36.91730835 18.98413086 35.81274414 C18.96342642 32.56267151 18.95036082 29.31261272 18.9375 26.0625 C18.92912109 24.92619141 18.92074219 23.78988281 18.91210938 22.61914062 C18.90727539 20.99975586 18.90727539 20.99975586 18.90234375 19.34765625 C18.89448853 17.84730835 18.89448853 17.84730835 18.88647461 16.31665039 C19 14 19 14 20 13 C22.20650656 12.89987599 24.41622386 12.8691882 26.625 12.8671875 C27.28709473 12.86623077 27.94918945 12.86527405 28.63134766 12.86428833 C30.03352961 12.86360674 31.4357147 12.86545958 32.83789062 12.86962891 C34.99095713 12.87497754 37.14381502 12.8696833 39.296875 12.86328125 C40.65625046 12.86394204 42.0156258 12.86522321 43.375 12.8671875 C45.24285156 12.86887939 45.24285156 12.86887939 47.1484375 12.87060547 C50 13 50 13 51 14 C51.08726223 15.78071246 51.10699041 17.5648314 51.09765625 19.34765625 C51.09443359 20.42724609 51.09121094 21.50683594 51.08789062 22.61914062 C51.07532227 24.32360352 51.07532227 24.32360352 51.0625 26.0625 C51.05798828 27.20267578 51.05347656 28.34285156 51.04882812 29.51757812 C51.03699747 32.34510351 51.0205141 35.1725264 51 38 C53.1462026 37.85970581 55.29196218 37.71261836 57.4375 37.5625 C58.63246094 37.48128906 59.82742187 37.40007812 61.05859375 37.31640625 C63.88570244 37.32343886 63.88570244 37.32343886 65 36 C65.15988491 33.48119483 65.25934225 30.98657734 65.31640625 28.46484375 C65.3475779 27.33496788 65.3475779 27.33496788 65.37937927 26.18226624 C65.44495425 23.7674401 65.50379621 21.35250202 65.5625 18.9375 C65.6056777 17.30402471 65.64929173 15.6705609 65.69335938 14.03710938 C65.80064362 10.02485536 65.90188821 6.01248836 66 2 C67.32 1.34 68.64 0.68 70 0 C70.99 0.66 71.98 1.32 73 2 C73.30452383 4.70834687 73.42005327 7.18415406 73.3984375 9.89453125 C73.40130768 10.6789006 73.40417786 11.46326996 73.40713501 12.27140808 C73.40917847 13.93330607 73.40362892 15.59522796 73.39111328 17.25708008 C73.37512685 19.79238307 73.39091803 22.32607632 73.41015625 24.86132812 C73.40817261 26.47656601 73.40432642 28.09180289 73.3984375 29.70703125 C73.40451019 30.46240677 73.41058289 31.21778229 73.4168396 31.99604797 C73.35710013 36.50605947 72.81510476 39.4329605 70 43 C66.71533599 45.18977601 65.73816905 45.24786375 61.9296875 45.23046875 C60.46208984 45.22756836 60.46208984 45.22756836 58.96484375 45.22460938 C57.94519531 45.21236328 56.92554688 45.20011719 55.875 45.1875 C54.84761719 45.18685547 53.82023437 45.18621094 52.76171875 45.18554688 C45.14024086 45.14024086 45.14024086 45.14024086 44 44 C43.91273777 42.21928754 43.89300959 40.4351686 43.90234375 38.65234375 C43.90556641 37.57275391 43.90878906 36.49316406 43.91210938 35.38085938 C43.92467773 33.67639648 43.92467773 33.67639648 43.9375 31.9375 C43.94201172 30.79732422 43.94652344 29.65714844 43.95117188 28.48242188 C43.9630024 25.65492582 43.9809385 22.82745655 44 20 C38.06 20 32.12 20 26 20 C26.01160156 21.72089844 26.02320312 23.44179687 26.03515625 25.21484375 C26.04453234 27.45572809 26.05363273 29.69661359 26.0625 31.9375 C26.07087891 33.07380859 26.07925781 34.21011719 26.08789062 35.38085938 C26.09272461 37.00024414 26.09272461 37.00024414 26.09765625 38.65234375 C26.10551147 40.15269165 26.10551147 40.15269165 26.11352539 41.68334961 C26 44 26 44 25 45 C21.42533316 45.30808767 17.83630686 45.27845278 14.25 45.3125 C12.74566406 45.35600586 12.74566406 45.35600586 11.2109375 45.40039062 C3.77007614 45.46453598 3.77007614 45.46453598 -0.140625 43.10546875 C-3.56459803 39.22832281 -3.17657204 35.73419469 -3.203125 30.78125 C-3.20882507 29.96756958 -3.21452515 29.15388916 -3.22039795 28.31555176 C-3.22984882 26.59400738 -3.23638228 24.87244491 -3.24023438 23.15087891 C-3.2499616 20.5104244 -3.28099199 17.87074119 -3.3125 15.23046875 C-3.31902785 13.55990047 -3.32427918 11.88932661 -3.328125 10.21875 C-3.3404718 9.42601685 -3.3528186 8.63328369 -3.36553955 7.81652832 C-3.35644531 5.59179688 -3.35644531 5.59179688 -3 2 C-2.01 1.34 -1.02 0.68 0 0 Z " fill="#EFE7DF" transform="translate(15,46)"/>
<path d="M0 0 C2.56315743 1.545978 4.85658156 3.37715054 7.1875 5.25 C14.06610431 10.60092942 21.12295331 15.59292727 28.35229492 20.45800781 C29.84460188 21.46538314 31.3327994 22.47887844 32.81640625 23.49902344 C34.31366431 24.52822095 35.82219564 25.54115297 37.33984375 26.54003906 C38.07332031 27.0450293 38.80679688 27.55001953 39.5625 28.0703125 C40.22378906 28.51391113 40.88507813 28.95750977 41.56640625 29.41455078 C43 31 43 31 43.27734375 33.62060547 C43 36 43 36 42 37 C39.33130542 37.54390537 37.57435232 37.32219007 35.19384766 35.98681641 C33.02023652 34.48414545 30.91359342 32.91504042 28.8125 31.3125 C27.21113835 30.12342737 25.60956955 28.93463369 24.0078125 27.74609375 C23.18571289 27.12976074 22.36361328 26.51342773 21.51660156 25.87841797 C17.438071 22.8341597 13.31292831 19.85520975 9.1875 16.875 C8.44153564 16.33141846 7.69557129 15.78783691 6.92700195 15.2277832 C3.368934 12.64664731 -0.17490088 10.17932956 -4 8 C-14.36702137 15.01273791 -24.65453624 22.09903742 -34.703125 29.5625 C-35.24114746 29.96001465 -35.77916992 30.3575293 -36.33349609 30.76708984 C-37.51712353 31.64275913 -38.69673526 32.52386792 -39.87353516 33.40869141 C-44.6784218 36.95805502 -44.6784218 36.95805502 -47.875 37.375 C-50 37 -50 37 -51 36 C-51.55859375 33.81640625 -51.55859375 33.81640625 -51 31 C-48.62841963 28.60064363 -45.85664859 26.81144384 -43.0625 24.9375 C-42.25361328 24.37530762 -41.44472656 23.81311523 -40.61132812 23.23388672 C-38.92138131 22.06031254 -37.22678187 20.89341266 -35.52783203 19.73291016 C-32.38027047 17.57515547 -29.26888541 15.3690305 -26.15917969 13.15722656 C-24.04387538 11.65613544 -21.91925055 10.1690783 -19.79296875 8.68359375 C-17.46332541 7.05012578 -15.19153424 5.38466202 -12.92578125 3.66015625 C-11.63220703 2.68369141 -11.63220703 2.68369141 -10.3125 1.6875 C-9.25482422 0.85798828 -9.25482422 0.85798828 -8.17578125 0.01171875 C-4.97716021 -1.47561132 -3.35334692 -1.05049566 0 0 Z " fill="#F0E7DF" transform="translate(54,10)"/>
<path d="M0 0 C0.78955078 -0.01224609 1.57910156 -0.02449219 2.39257812 -0.03710938 C4.45057435 -0.04237279 6.50812009 0.06543715 8.5625 0.1875 C9.2225 0.8475 9.8825 1.5075 10.5625 2.1875 C10.02678571 5.72321429 10.02678571 5.72321429 8.5625 7.1875 C4.8933423 7.33060287 1.23534559 7.22971662 -2.4375 7.1875 C-2.4375 10.8175 -2.4375 14.4475 -2.4375 18.1875 C-4.4175 19.1775 -4.4175 19.1775 -6.4375 20.1875 C-7.4275 19.5275 -8.4175 18.8675 -9.4375 18.1875 C-9.68567926 15.25366664 -9.76393881 12.55117315 -9.6875 9.625 C-9.68234375 8.83158203 -9.6771875 8.03816406 -9.671875 7.22070312 C-9.55952279 -1.00207431 -7.45178331 0.00605344 0 0 Z " fill="#EFE7DF" transform="translate(21.4375,8.8125)"/>
</svg>
