<?xml version="1.0" encoding="UTF-8"?>
<svg version="1.1" xmlns="http://www.w3.org/2000/svg" width="612" height="612">
<path d="M0 0 C2.13677654 1.78879237 2.13677654 1.78879237 4.4375 3.3671875 C5.28828125 4.05748047 5.28828125 4.05748047 6.15625 4.76171875 C6.15625 5.42171875 6.15625 6.08171875 6.15625 6.76171875 C6.6925 6.96796875 7.22875 7.17421875 7.78125 7.38671875 C11.07603009 9.29422301 13.74988628 11.80991259 16.15625 14.76171875 C16.15625 15.42171875 16.15625 16.08171875 16.15625 16.76171875 C16.81625 16.76171875 17.47625 16.76171875 18.15625 16.76171875 C19.97029051 18.84951994 21.66735297 20.94217285 23.34375 23.13671875 C23.83987793 23.78012207 24.33600586 24.42352539 24.84716797 25.08642578 C26.29275813 26.97138503 27.72664793 28.86461648 29.15625 30.76171875 C29.80464844 31.61765625 30.45304687 32.47359375 31.12109375 33.35546875 C34.69691803 38.26907199 37.78139419 43.42190115 40.78125 48.69921875 C41.1417041 49.33134277 41.5021582 49.9634668 41.87353516 50.61474609 C55.33299608 74.78045702 62.32771491 102.16789789 63.15625 129.76171875 C63.19621094 130.68726563 63.23617188 131.6128125 63.27734375 132.56640625 C64.29733509 175.88603825 46.84068835 215.83148714 19.93359375 248.91796875 C19.34707031 249.52640625 18.76054687 250.13484375 18.15625 250.76171875 C17.49625 250.76171875 16.83625 250.76171875 16.15625 250.76171875 C15.84880859 251.56609375 15.84880859 251.56609375 15.53515625 252.38671875 C13.59258772 255.73255916 10.91180169 258.16285748 8.09375 260.76171875 C7.17142578 261.61286255 7.17142578 261.61286255 6.23046875 262.48120117 C-28.16191319 293.49023254 -74.04768516 308.88644043 -120.078125 306.65332031 C-165.29575859 304.05482375 -208.53218768 283.51289097 -238.84375 249.76171875 C-264.75784861 219.35110988 -281.2627185 182.00615705 -282.84375 141.76171875 C-282.87098145 141.06949219 -282.89821289 140.37726563 -282.92626953 139.6640625 C-284.58402454 90.36930967 -265.5725212 46.91644558 -232.46875 11.19921875 C-222.70653648 1.15808484 -211.57291241 -6.7111132 -199.84375 -14.23828125 C-198.98007813 -14.80546875 -198.11640625 -15.37265625 -197.2265625 -15.95703125 C-137.10406794 -54.01436787 -53.77296885 -44.18345607 0 0 Z M-140.84375 3.76171875 C-141.51841309 3.92269043 -142.19307617 4.08366211 -142.88818359 4.24951172 C-171.52346594 11.20618125 -198.18001015 28.59518341 -215.78125 52.32421875 C-216.5549292 53.36521729 -216.5549292 53.36521729 -217.34423828 54.42724609 C-227.80424678 68.74248691 -235.33126168 84.59420764 -239.84375 101.76171875 C-240.14410156 102.84453125 -240.44445312 103.92734375 -240.75390625 105.04296875 C-245.49785142 125.3426411 -244.4998526 148.78178033 -238.84375 168.76171875 C-238.57087158 169.75631104 -238.57087158 169.75631104 -238.29248047 170.77099609 C-228.64791746 205.01393519 -205.18708627 232.89235395 -174.96875 251.13671875 C-144.51866761 267.66975317 -106.93302652 271.91948427 -73.58544922 262.59619141 C-55.04454577 256.95302061 -38.6941 248.18733785 -23.84375 235.76171875 C-23.3089502 235.31876465 -22.77415039 234.87581055 -22.22314453 234.41943359 C3.01935862 213.2260433 19.64431132 181.5398131 23.15625 148.76171875 C24.50702488 113.21260958 17.45398192 80.13292813 -4.84375 51.76171875 C-5.87435547 50.40820312 -5.87435547 50.40820312 -6.92578125 49.02734375 C-27.37972852 22.93474075 -56.6388586 7.68954217 -88.84375 1.76171875 C-89.89691406 1.56707031 -90.95007813 1.37242187 -92.03515625 1.171875 C-108.19163207 -0.56805317 -125.05405008 -0.18970565 -140.84375 3.76171875 Z " fill="#FEFEFE" transform="translate(415.84375,172.23828125)"/>
<path d="M0 0 C5.00432484 4.32191691 7.95931544 8.46226723 9 15 C9.09842195 16.97052416 9.14798539 18.94381128 9.16113281 20.91674805 C9.17074036 22.08533859 9.1803479 23.25392914 9.19024658 24.45793152 C9.19449646 25.7131813 9.19874634 26.96843109 9.203125 28.26171875 C9.20882507 29.56268997 9.21452515 30.86366119 9.22039795 32.20405579 C9.23088084 34.95692329 9.23674061 37.70976185 9.24023438 40.46264648 C9.24570099 43.96482302 9.26970065 47.46660724 9.29820633 50.96866131 C9.32148387 54.33717171 9.3232926 57.70563222 9.328125 61.07421875 C9.3404718 62.31934738 9.3528186 63.56447601 9.36553955 64.84733582 C9.34403199 73.33506459 9.10432464 81.93644942 3.125 88.5 C-1.91637859 93.2383449 -7.52407516 93.38770397 -14.12890625 93.2421875 C-20.39197338 92.71387435 -23.67384958 89.65873071 -27.703125 85.20703125 C-31.93696224 78.00185643 -31.30669812 69.47909833 -31.30078125 61.41015625 C-31.30506638 60.1110582 -31.3093515 58.81196014 -31.31376648 57.47349548 C-31.3211912 54.73432308 -31.32096465 51.99527966 -31.31567383 49.25610352 C-31.3098809 45.7684529 -31.3268236 42.28133366 -31.3500185 38.79377079 C-31.36840222 35.43671165 -31.36456853 32.07976527 -31.36328125 28.72265625 C-31.372491 27.4817775 -31.38170074 26.24089874 -31.39118958 24.9624176 C-31.34351129 15.97033866 -30.65116484 7.65116484 -24 1 C-16.35417396 -4.35207823 -8.14567456 -4.45706721 0 0 Z " fill="#FEFEFF" transform="translate(317,519)"/>
<path d="M0 0 C6.29650428 4.64741982 9.33777504 9.13232231 10.625 16.9375 C10.90980002 21.40738107 10.90543357 25.86596329 10.890625 30.34375 C10.89349518 32.26266052 10.89349518 32.26266052 10.89642334 34.22033691 C10.89935683 36.91663493 10.89513461 39.61279962 10.88574219 42.30908203 C10.87434859 45.7451667 10.88091765 49.18093879 10.89288712 52.61701202 C10.90189928 55.92178229 10.89556807 59.22647089 10.890625 62.53125 C10.89467346 63.75541626 10.89872192 64.97958252 10.90289307 66.24084473 C10.85421733 75.15705814 10.5022533 82.75419041 4.625 89.9375 C-1.66409889 94.68641141 -6.66669162 95.61197698 -14.375 94.9375 C-19.76650584 92.90296949 -24.10291792 90.02734913 -27.125 85.0625 C-29.112889 80.09277751 -29.50010078 75.30066856 -29.53613281 69.9831543 C-29.54574036 68.83143234 -29.5553479 67.67971039 -29.56524658 66.49308777 C-29.56949646 65.26173599 -29.57374634 64.03038422 -29.578125 62.76171875 C-29.58382507 61.48198685 -29.58952515 60.20225494 -29.59539795 58.88374329 C-29.60586749 56.17973436 -29.61173658 53.47575482 -29.61523438 50.77172852 C-29.62071143 47.3288932 -29.64473926 43.88645484 -29.67320633 40.44374371 C-29.696454 37.13307734 -29.69828984 33.82246239 -29.703125 30.51171875 C-29.7154718 29.28643967 -29.7278186 28.06116058 -29.74053955 26.79875183 C-29.71947132 18.64707874 -29.23696621 10.34167346 -23.5 4 C-22.79230469 3.18208984 -22.79230469 3.18208984 -22.0703125 2.34765625 C-16.07245053 -2.64134875 -7.08180847 -2.22945822 0 0 Z " fill="#FEFEFE" transform="translate(315.375,1.0625)"/>
<path d="M0 0 C3.8193837 2.69092942 7.52666675 5.54236472 10.75 8.9375 C10.75 9.5975 10.75 10.2575 10.75 10.9375 C11.74 11.2675 12.73 11.5975 13.75 11.9375 C15.9375 13.875 15.9375 13.875 17.75 15.9375 C17.75 16.5975 17.75 17.2575 17.75 17.9375 C18.74 18.2675 19.73 18.5975 20.75 18.9375 C22.21386719 20.42919922 22.21386719 20.42919922 23.796875 22.3671875 C26.62647259 25.7040894 29.57892522 28.81938091 32.703125 31.8828125 C33.569375 32.73230469 34.435625 33.58179688 35.328125 34.45703125 C37.12129313 36.20563234 38.91822503 37.95038139 40.71875 39.69140625 C41.57984375 40.53832031 42.4409375 41.38523438 43.328125 42.2578125 C44.10575195 43.01336426 44.88337891 43.76891602 45.68457031 44.54736328 C50.23058229 49.80805563 51.31417563 54.42778083 51.09375 61.1875 C50.4638322 66.22684243 48.81197395 70.05829192 45.03125 73.50390625 C40.60495981 76.7954907 37.00265132 78.09513234 31.4375 78.1875 C30.51324219 78.21328125 29.58898437 78.2390625 28.63671875 78.265625 C21.47700983 77.45180152 17.21749308 72.80081271 12.4453125 67.890625 C11.76250214 67.20119812 11.07969177 66.51177124 10.37619019 65.80145264 C8.20187113 63.60382456 6.03797435 61.39628986 3.875 59.1875 C1.71750519 56.99471567 -0.44219056 54.80416713 -2.60476685 52.61639404 C-3.94605639 51.25839534 -5.28423264 49.89731144 -6.61862183 48.53253174 C-10.44446483 44.64653846 -14.39185262 40.98756538 -18.54374695 37.4510498 C-20.69350269 35.54408625 -22.45986147 33.48017796 -24.1875 31.1875 C-24.75339844 30.45015625 -25.31929688 29.7128125 -25.90234375 28.953125 C-29.29740792 23.8752899 -28.79720402 17.80474312 -28.25 11.9375 C-26.40380097 6.27849862 -22.43108331 2.8683759 -17.4609375 -0.1484375 C-12.12487274 -2.35451374 -5.38417615 -1.76021144 0 0 Z " fill="#FEFEFE" transform="translate(112.25,85.0625)"/>
<path d="M0 0 C0.9910952 -0.01007584 0.9910952 -0.01007584 2.00221252 -0.02035522 C4.18221608 -0.03932016 6.36191131 -0.04325907 8.54199219 -0.04541016 C10.06410853 -0.05184084 11.58622363 -0.0585694 13.1083374 -0.06558228 C16.29930483 -0.07755248 19.49016405 -0.08126354 22.68115234 -0.08007812 C26.75426252 -0.07987534 30.82667182 -0.10713626 34.89961624 -0.14162254 C38.04479099 -0.16395301 41.18979898 -0.16791374 44.33504486 -0.16685867 C45.83564409 -0.16920698 47.33624846 -0.17798684 48.8367691 -0.19352341 C56.86886012 -0.26887903 63.47398814 -0.31535957 70.33886719 4.29052734 C74.71733068 8.78421356 76.42913505 12.89586681 76.71386719 19.10302734 C76.56807172 24.26725619 75.61352888 28.22332785 72.33886719 32.29052734 C65.99478193 37.72324215 60.61021379 39.38933523 52.33032227 39.4675293 C51.14171097 39.48036453 49.95309967 39.49319977 48.72846985 39.50642395 C47.45134628 39.51381088 46.17422272 39.52119781 44.85839844 39.52880859 C44.202479 39.53288412 43.54655956 39.53695965 42.87076378 39.54115868 C39.39683734 39.5619644 35.92294972 39.57628808 32.44897461 39.58569336 C28.88615183 39.5967291 25.3239585 39.6311109 21.76135731 39.67086506 C18.99957734 39.69718554 16.23794374 39.70539884 13.47604942 39.70897484 C11.53194097 39.71612994 9.58793323 39.7425011 7.64399719 39.7693634 C-0.45127764 39.74969899 -8.40129932 39.20946572 -14.62736511 33.48164368 C-19.53086306 28.09479403 -20.01154792 23.46474078 -19.94238281 16.30615234 C-19.42907316 10.80233215 -17.22672741 7.73870234 -13.16113281 3.97802734 C-8.5403693 0.85901197 -5.66265727 0.03619304 0 0 Z " fill="#FEFFFE" transform="translate(19.6611328125,286.70947265625)"/>
<path d="M0 0 C0.66058411 -0.00817749 1.32116821 -0.01635498 2.00177002 -0.02478027 C4.18712471 -0.04958235 6.37241452 -0.06613967 8.55786133 -0.08056641 C9.30637171 -0.08589008 10.05488209 -0.09121376 10.8260746 -0.09669876 C14.79045206 -0.12341189 18.75479829 -0.14278986 22.71923828 -0.15722656 C25.99100826 -0.17054691 29.26215174 -0.19836561 32.53369141 -0.23925781 C36.49242842 -0.28873341 40.45059878 -0.31336587 44.40963173 -0.32045364 C45.91306051 -0.32714185 47.41647785 -0.34230039 48.91972923 -0.36634445 C64.39399401 -0.59966715 64.39399401 -0.59966715 70.45239258 5.19287109 C75.21101286 10.51374524 76.19683459 15.24759283 75.87426758 22.35302734 C75.09247499 27.61564968 72.97788876 30.66737491 69.20239258 34.44287109 C61.18389302 39.54555263 53.93331314 39.63591122 44.64379883 39.59130859 C43.30915671 39.59333423 41.97451568 39.59624973 40.63987732 39.6000061 C37.85356017 39.60440803 35.06753318 39.59806899 32.28125 39.58398438 C28.73303596 39.56691002 25.18550378 39.57673546 21.6373148 39.59470177 C18.88411955 39.6056121 16.13108236 39.60206008 13.377882 39.59431839 C11.44100877 39.59138021 9.50412907 39.60039619 7.567276 39.60971069 C-0.63969738 39.54475305 -8.15039686 38.96824798 -14.92260742 33.94287109 C-19.16299072 29.50056478 -20.69691021 25.31680924 -20.98510742 19.25537109 C-20.80029387 14.18839946 -19.64414739 10.24357745 -16.54760742 6.19287109 C-11.37077142 1.46312547 -7.00895377 0.0754302 0 0 Z " fill="#FFFEFF" transform="translate(536.547607421875,286.80712890625)"/>
<path d="M0 0 C1.21236328 -0.05607422 1.21236328 -0.05607422 2.44921875 -0.11328125 C10.24937317 1.04663257 15.51707991 5.96217201 20.8046875 11.44921875 C21.47670197 12.12926468 22.14871643 12.80931061 22.84109497 13.50996399 C24.96631592 15.66397187 27.07733691 17.83124806 29.1875 20 C31.32170245 22.17672314 33.45874522 24.35058587 35.59817505 26.52217102 C36.92397667 27.86966554 38.24626321 29.22062941 39.56466675 30.57536316 C40.15933746 31.18302017 40.75400818 31.79067719 41.36669922 32.41674805 C41.88884003 32.95317429 42.41098083 33.48960052 42.94894409 34.0422821 C44.3073925 35.4276255 44.3073925 35.4276255 46.3125 36.3125 C46.3125 36.9725 46.3125 37.6325 46.3125 38.3125 C46.910625 38.580625 47.50875 38.84875 48.125 39.125 C50.31097854 40.31167406 51.72582594 41.40849113 53.3125 43.3125 C53.3125 43.9725 53.3125 44.6325 53.3125 45.3125 C53.9725 45.3125 54.6325 45.3125 55.3125 45.3125 C60.19952299 51.97662225 61.08892091 57.20444733 60.3125 65.3125 C58.74137499 70.94394205 55.82199511 74.23165132 50.99609375 77.40234375 C47.63880398 79.2173055 44.74748505 79.50030108 41 79.5625 C40.07574219 79.58828125 39.15148437 79.6140625 38.19921875 79.640625 C32.44876852 78.9869879 28.54708833 75.92298862 24.5480957 71.9362793 C23.65729813 71.0549382 22.76650055 70.17359711 21.84870911 69.26554871 C20.89485013 68.30631945 19.94138359 67.34669981 18.98828125 66.38671875 C17.99556963 65.39603085 17.00241327 64.40578841 16.00883484 63.41596985 C13.93384005 61.34538436 11.86433325 59.26950555 9.79858398 57.18969727 C7.159254 54.53327634 4.50668233 51.89055334 1.8498354 49.25166607 C-0.20173171 47.21097452 -2.24605689 45.16314799 -4.2883091 43.1131382 C-5.26326573 42.13618998 -6.24042911 41.16143858 -7.21988487 40.18900108 C-8.59097041 38.82559162 -9.9513417 37.45143355 -11.3112793 36.0769043 C-12.0859404 35.29985641 -12.8606015 34.52280853 -13.65873718 33.72221375 C-18.13354404 28.40715005 -19.25196413 23.83106671 -19.03125 17.0625 C-18.4013322 12.02315757 -16.74947395 8.19170808 -12.96875 4.74609375 C-8.79562907 1.64277713 -5.25736875 0.1568132 0 0 Z " fill="#FFFFFE" transform="translate(467.6875,448.6875)"/>
<path d="M0 0 C5.05078428 3.40634289 8.61262451 7.02468943 10.6875 12.8125 C11.64655787 19.77151747 10.47131858 24.84796648 6.6875 30.8125 C3.63798756 34.44353271 0.3135998 37.77098844 -3.046875 41.11328125 C-4.00899294 42.0806453 -4.97059262 43.04852505 -5.93170166 44.01689148 C-7.93910053 46.03464573 -9.9537217 48.04482306 -11.97363281 50.05004883 C-14.54882439 52.60803582 -17.10307553 55.18584554 -19.65203476 57.76994038 C-21.63014669 59.77010943 -23.6199272 61.75834567 -25.61322784 63.74336815 C-27.0160049 65.14493772 -28.40825101 66.55702217 -29.80023193 67.96931458 C-35.81191966 73.89413889 -40.29690451 77.28454258 -48.875 78.1875 C-55.038185 77.51515255 -59.82800343 75.04785787 -64.3125 70.8125 C-68.01867001 65.51797141 -68.74157989 61.24869838 -68.3125 54.8125 C-66.28007519 46.71210393 -61.24331737 42.02628267 -55.421875 36.29296875 C-54.43321726 35.30348083 -53.44537698 34.31317554 -52.45831299 33.32209778 C-50.39495008 31.25588852 -48.32314855 29.19866374 -46.24462891 27.14770508 C-43.59203542 24.52921447 -40.96000873 21.89113069 -38.33379745 19.24621105 C-36.2993649 17.20116917 -34.25523315 15.16604986 -32.20801544 13.13381386 C-31.23409061 12.16504094 -30.26293754 11.19347264 -29.29473114 10.2189846 C-20.68333735 1.57272209 -12.56604095 -4.50480713 0 0 Z " fill="#FFFEFE" transform="translate(525.3125,77.1875)"/>
<path d="M0 0 C4.31633181 3.18586395 7.91120739 6.79612218 9.625 11.9375 C9.82098081 13.82731495 9.93678445 15.72610221 10 17.625 C10.07347656 19.11580078 10.07347656 19.11580078 10.1484375 20.63671875 C8.72713852 29.5993877 1.05575606 35.94671727 -5.09375 42.0546875 C-6.03913367 43.00209671 -6.98407203 43.94995048 -7.92858887 44.89822388 C-9.89727044 46.87129976 -11.87120254 48.83891957 -13.84912109 50.80273438 C-16.37782735 53.31427955 -18.89272841 55.83915297 -21.40389252 58.36822319 C-23.3476146 60.32280143 -25.29844438 62.27015935 -27.2514801 64.2154274 C-28.63194501 65.59293458 -30.00639965 66.97645651 -31.3807373 68.3600769 C-32.64730164 69.61245651 -32.64730164 69.61245651 -33.93945312 70.89013672 C-34.67715942 71.62545624 -35.41486572 72.36077576 -36.17492676 73.11837769 C-41.893731 77.84694954 -48.29575501 77.5346608 -55.375 76.9375 C-60.79466693 75.23130856 -64.44611348 71.74087389 -67.375 66.9375 C-69.63429799 61.17009375 -69.96890921 55.96864177 -67.5586853 50.21438599 C-63.65539493 42.70618501 -56.24258438 36.63328807 -50.3359375 30.6953125 C-49.49205475 29.84572968 -48.648172 28.99614685 -47.77871704 28.12081909 C-46.00686366 26.33957814 -44.23359792 24.55974107 -42.45898438 22.78125 C-39.74407587 20.05655451 -37.04001446 17.32137744 -34.3359375 14.5859375 C-32.60742953 12.85090603 -30.87828499 11.11650846 -29.1484375 9.3828125 C-28.34312592 8.56515411 -27.53781433 7.74749573 -26.70809937 6.90505981 C-25.95026154 6.15022308 -25.19242371 5.39538635 -24.41162109 4.61767578 C-23.75100677 3.95341583 -23.09039246 3.28915588 -22.40975952 2.60476685 C-16.18273931 -2.49760729 -7.38526911 -2.32499213 0 0 Z " fill="#FEFFFE" transform="translate(164.375,439.0625)"/>
</svg>
